<?xml version="1.0" encoding="UTF-8" standalone="no"?>
<!-- Created with Inkscape (http://www.inkscape.org/) -->

<svg
   width="580.02075"
   height="580.02081"
   viewBox="0 0 153.46382 153.46384"
   version="1.1"
   id="svg1"
   inkscape:version="1.4.4 (dcaf3e7, 2026-05-05)"
   sodipodi:docname="logo2.svg"
   xmlns:inkscape="http://www.inkscape.org/namespaces/inkscape"
   xmlns:sodipodi="http://sodipodi.sourceforge.net/DTD/sodipodi-0.dtd"
   xmlns="http://www.w3.org/2000/svg"
   xmlns:svg="http://www.w3.org/2000/svg">
  <sodipodi:namedview
     id="namedview1"
     pagecolor="#ffffff"
     bordercolor="#eeeeee"
     borderopacity="1"
     inkscape:showpageshadow="0"
     inkscape:pageopacity="0"
     inkscape:pagecheckerboard="0"
     inkscape:deskcolor="#505050"
     inkscape:document-units="px"
     inkscape:zoom="1"
     inkscape:cx="190.5"
     inkscape:cy="214.5"
     inkscape:window-width="1920"
     inkscape:window-height="1057"
     inkscape:window-x="-8"
     inkscape:window-y="-8"
     inkscape:window-maximized="1"
     inkscape:current-layer="layer1"
     showgrid="false">
    <inkscape:page
       x="0"
       y="0"
       width="153.46382"
       height="153.46384"
       id="page2"
       margin="0"
       bleed="0" />
  </sodipodi:namedview>
  <defs
     id="defs1">
    <rect
       x="126"
       y="152"
       width="176"
       height="126"
       id="rect2" />
  </defs>
  <g
     inkscape:label="Layer 1"
     inkscape:groupmode="layer"
     id="layer1"
     transform="translate(-92.601418,-18.518083)">
    <path
       id="text2"
       style="font-style:normal;font-variant:normal;font-weight:normal;font-stretch:normal;font-size:11.9949px;font-family:'Times New Roman';-inkscape-font-specification:'Times New Roman, Normal';font-variant-ligatures:normal;font-variant-caps:normal;font-variant-numeric:normal;font-variant-east-asian:normal;writing-mode:lr-tb;direction:ltr;white-space:pre;shape-inside:url(#rect2);fill:#000000;stroke-width:111.42;stroke-dasharray:none"
       d="m 127.49164,71.866652 v 1.274898 c 1.90628,0 3.28429,0.229463 4.13409,0.688859 0.87273,0.436338 1.46954,0.987554 1.79111,1.65359 0.45934,0.918734 0.68933,2.411741 0.68933,4.478847 v 30.523724 c 0,2.61826 -0.25281,4.29468 -0.75809,5.02965 -0.82679,1.19431 -2.22763,1.79159 -4.20285,1.79159 h -1.65359 v 1.27437 h 16.26097 v -1.27437 h -1.65365 c -1.83735,0 -3.18095,-0.48228 -4.03074,-1.44689 -0.6201,-0.71204 -0.93068,-2.50345 -0.93068,-5.37435 V 79.273987 l 18.05262,39.308193 h 1.1369 l 18.01803,-39.308193 v 31.212583 c 0,2.61826 -0.25281,4.29468 -0.75809,5.02965 -0.80385,1.19431 -2.20469,1.79159 -4.20285,1.79159 h -1.65365 v 1.27437 h 19.84373 v -1.27437 h -1.619 c -1.83741,0 -3.18148,-0.48228 -4.03128,-1.44689 -0.64309,-0.71204 -0.96432,-2.50345 -0.96432,-5.37435 V 79.962846 c 0,-2.618322 0.25235,-4.294735 0.75762,-5.02971 0.8268,-1.194312 2.23981,-1.791586 4.23798,-1.791586 h 1.619 V 71.866652 H 174.34509 L 157.67066,108.41946 140.72077,71.866652 Z m 72.69734,28.012279 a 10.986189,10.986189 0 0 0 -10.14977,6.782009 10.986189,10.986189 0 0 0 2.38127,11.97241 l 7.7685,-7.76803 7.7685,7.76803 a 10.986189,10.986189 0 0 0 2.38127,-11.97241 10.986189,10.986189 0 0 0 -10.14977,-6.782009 z" />
  </g>
</svg>
