<?xml version="1.0" encoding="UTF-8" standalone="no"?>
<!-- Created with Inkscape (http://www.inkscape.org/) -->

<svg
   width="580.02075"
   height="580.02081"
   viewBox="0 0 153.46382 153.46384"
   version="1.1"
   id="svg1"
   inkscape:version="1.4.4 (dcaf3e7, 2026-05-05)"
   sodipodi:docname="drawing.svg"
   xmlns:inkscape="http://www.inkscape.org/namespaces/inkscape"
   xmlns:sodipodi="http://sodipodi.sourceforge.net/DTD/sodipodi-0.dtd"
   xmlns="http://www.w3.org/2000/svg"
   xmlns:svg="http://www.w3.org/2000/svg">
  <sodipodi:namedview
     id="namedview1"
     pagecolor="#ffffff"
     bordercolor="#eeeeee"
     borderopacity="1"
     inkscape:showpageshadow="0"
     inkscape:pageopacity="0"
     inkscape:pagecheckerboard="0"
     inkscape:deskcolor="#505050"
     inkscape:document-units="px"
     inkscape:zoom="1"
     inkscape:cx="681"
     inkscape:cy="319.5"
     inkscape:window-width="1920"
     inkscape:window-height="1057"
     inkscape:window-x="-8"
     inkscape:window-y="-8"
     inkscape:window-maximized="1"
     inkscape:current-layer="layer1">
    <inkscape:page
       x="0"
       y="0"
       width="153.46382"
       height="153.46384"
       id="page2"
       margin="0"
       bleed="0" />
  </sodipodi:namedview>
  <defs
     id="defs1" />
  <g
     inkscape:label="Layer 1"
     inkscape:groupmode="layer"
     id="layer1"
     transform="translate(-92.601418,-18.518083)">
    <path
       id="path27"
       style="opacity:1;fill:#e3e2db;stroke-width:0.264999"
       d="M 222.91146,95.25 A 53.578129,53.578129 0 0 1 169.33333,148.82813 53.578129,53.578129 0 0 1 115.7552,95.25 53.578129,53.578129 0 0 1 169.33333,41.671871 53.578129,53.578129 0 0 1 222.91146,95.25 Z" />
    <path
       id="path29"
       style="opacity:1;fill:#ff0000;stroke:#fff900;stroke-width:0.258377"
       transform="matrix(0.81921709,0,0,0.81921709,124.89934,57.968797)"
       d="M 101.02849,126.64859 56.029467,49.835995 78.43355,135.99367 54.848396,50.15179 54.189833,139.17231 53.625836,50.15114 29.949506,135.96791 52.445101,49.834091 7.3645074,126.59884 51.386658,49.222249 -12.026032,111.70359 50.522636,48.357309 -26.900679,92.297237 49.911918,47.298216 -36.245752,69.702299 49.596124,46.117145 -39.424399,45.458582 49.596773,44.894585 -36.22,21.218255 49.913822,43.71385 -26.85093,-1.3667434 50.525665,42.655407 -11.955676,-20.757283 51.390604,41.791385 7.4506761,-35.63193 52.449697,41.180667 30.045614,-44.977003 53.630768,40.864873 54.289332,-48.155649 54.853328,40.865522 78.529658,-44.95125 56.034063,41.182571 101.11466,-35.582181 57.092507,41.794414 120.5052,-20.686926 57.956528,42.659354 135.37984,-1.2805747 58.567246,43.718447 144.72492,21.314364 58.883041,44.899517 147.90356,45.558081 58.882391,46.122078 144.69916,69.798408 58.565342,47.302812 135.33009,92.383406 57.9535,48.361256 120.43484,111.77395 57.08856,49.225277 Z" />
  </g>
</svg>
